<mxfile host="65bd71144e">
    <diagram id="01BeGtUPm_ekkjgZRtDX" name="Página-1">
        <mxGraphModel dx="898" dy="680" grid="1" gridSize="10" guides="1" tooltips="1" connect="1" arrows="1" fold="1" page="1" pageScale="1" pageWidth="827" pageHeight="1169" math="0" shadow="0">
            <root>
                <mxCell id="0"/>
                <mxCell id="1" parent="0"/>
                <mxCell id="1Y6D_242-XDic309ft3X-4" value="" style="edgeStyle=orthogonalEdgeStyle;rounded=0;orthogonalLoop=1;jettySize=auto;html=1;" parent="1" source="1Y6D_242-XDic309ft3X-1" target="1Y6D_242-XDic309ft3X-3" edge="1">
                    <mxGeometry relative="1" as="geometry"/>
                </mxCell>
                <mxCell id="1Y6D_242-XDic309ft3X-5" value="Publica em&lt;br&gt;&amp;nbsp;um tópico" style="edgeLabel;html=1;align=center;verticalAlign=middle;resizable=0;points=[];" parent="1Y6D_242-XDic309ft3X-4" vertex="1" connectable="0">
                    <mxGeometry x="-0.2545" y="3" relative="1" as="geometry">
                        <mxPoint x="9" y="3" as="offset"/>
                    </mxGeometry>
                </mxCell>
                <mxCell id="1Y6D_242-XDic309ft3X-1" value="Publisher" style="rounded=0;whiteSpace=wrap;html=1;" parent="1" vertex="1">
                    <mxGeometry x="320" y="430" width="120" height="60" as="geometry"/>
                </mxCell>
                <mxCell id="3" value="" style="edgeStyle=none;html=1;" edge="1" parent="1" source="1Y6D_242-XDic309ft3X-3" target="2">
                    <mxGeometry relative="1" as="geometry"/>
                </mxCell>
                <mxCell id="1Y6D_242-XDic309ft3X-3" value="Tópico" style="rhombus;whiteSpace=wrap;html=1;rounded=0;" parent="1" vertex="1">
                    <mxGeometry x="540" y="420" width="80" height="80" as="geometry"/>
                </mxCell>
                <mxCell id="1Y6D_242-XDic309ft3X-7" style="edgeStyle=orthogonalEdgeStyle;rounded=0;orthogonalLoop=1;jettySize=auto;html=1;entryX=0;entryY=0.5;entryDx=0;entryDy=0;" parent="1" source="1Y6D_242-XDic309ft3X-6" target="1Y6D_242-XDic309ft3X-1" edge="1">
                    <mxGeometry relative="1" as="geometry"/>
                </mxCell>
                <mxCell id="1Y6D_242-XDic309ft3X-6" value="APIgee" style="rounded=0;whiteSpace=wrap;html=1;strokeColor=default;" parent="1" vertex="1">
                    <mxGeometry x="130" y="430" width="120" height="60" as="geometry"/>
                </mxCell>
                <mxCell id="1Y6D_242-XDic309ft3X-12" style="edgeStyle=orthogonalEdgeStyle;rounded=0;orthogonalLoop=1;jettySize=auto;html=1;entryX=0;entryY=0.5;entryDx=0;entryDy=0;" parent="1" source="1Y6D_242-XDic309ft3X-11" target="1Y6D_242-XDic309ft3X-6" edge="1">
                    <mxGeometry relative="1" as="geometry"/>
                </mxCell>
                <mxCell id="1Y6D_242-XDic309ft3X-11" value="" style="outlineConnect=0;dashed=0;verticalLabelPosition=bottom;verticalAlign=top;align=center;html=1;shape=mxgraph.aws3.mobile_client;fillColor=#D2D3D3;gradientColor=none;strokeColor=default;" parent="1" vertex="1">
                    <mxGeometry x="20" y="428.5" width="40.5" height="63" as="geometry"/>
                </mxCell>
                <mxCell id="2" value="Subscribe" style="ellipse;whiteSpace=wrap;html=1;rounded=0;" vertex="1" parent="1">
                    <mxGeometry x="680" y="430" width="120" height="60" as="geometry"/>
                </mxCell>
                <mxCell id="4" style="edgeStyle=orthogonalEdgeStyle;rounded=0;orthogonalLoop=1;jettySize=auto;html=1;entryX=1;entryY=0;entryDx=0;entryDy=0;exitX=0;exitY=0.5;exitDx=0;exitDy=0;" edge="1" parent="1" source="6" target="2">
                    <mxGeometry relative="1" as="geometry">
                        <mxPoint x="850" y="430" as="targetPoint"/>
                        <Array as="points">
                            <mxPoint x="860" y="399"/>
                            <mxPoint x="860" y="439"/>
                        </Array>
                    </mxGeometry>
                </mxCell>
                <mxCell id="5" value="/client" style="edgeLabel;html=1;align=center;verticalAlign=middle;resizable=0;points=[];" vertex="1" connectable="0" parent="4">
                    <mxGeometry x="0.0167" relative="1" as="geometry">
                        <mxPoint as="offset"/>
                    </mxGeometry>
                </mxCell>
                <mxCell id="6" value="Consumer&amp;nbsp;&lt;br&gt;Client" style="rounded=0;whiteSpace=wrap;html=1;" vertex="1" parent="1">
                    <mxGeometry x="920" y="370" width="120" height="60" as="geometry"/>
                </mxCell>
                <mxCell id="7" style="edgeStyle=orthogonalEdgeStyle;rounded=0;orthogonalLoop=1;jettySize=auto;html=1;entryX=1;entryY=1;entryDx=0;entryDy=0;" edge="1" parent="1" source="9" target="2">
                    <mxGeometry relative="1" as="geometry">
                        <mxPoint x="850" y="470" as="targetPoint"/>
                    </mxGeometry>
                </mxCell>
                <mxCell id="8" value="/payment" style="edgeLabel;html=1;align=center;verticalAlign=middle;resizable=0;points=[];" vertex="1" connectable="0" parent="7">
                    <mxGeometry x="0.0333" y="2" relative="1" as="geometry">
                        <mxPoint as="offset"/>
                    </mxGeometry>
                </mxCell>
                <mxCell id="9" value="Consumer&lt;br&gt;Payment" style="rounded=0;whiteSpace=wrap;html=1;" vertex="1" parent="1">
                    <mxGeometry x="920" y="490" width="120" height="60" as="geometry"/>
                </mxCell>
            </root>
        </mxGraphModel>
    </diagram>
</mxfile>
